<svg width="442" height="247" viewBox="0 0 442 247" fill="none" xmlns="http://www.w3.org/2000/svg">
<path d="M0 0H339V104H442V247H0V0Z" fill="url(#paint0_linear_713_18)"/>
<path d="M32 110.396H54.365C67.4485 110.396 72.257 107.153 72.257 94.7402V47.7738C72.257 35.3612 67.4485 32.1182 54.365 32.1182H32V110.396ZM57.1606 98.6541H44.3007V43.8599H57.1606C58.9498 43.8599 59.9562 44.8663 59.9562 46.6555V95.8585C59.9562 97.6477 58.9498 98.6541 57.1606 98.6541Z" fill="white"/>
<path d="M84.5403 110.396H96.841V32.1182H84.5403V110.396Z" fill="white"/>
<path d="M109.194 46.6555V95.8585C109.194 108.271 114.003 111.514 127.086 111.514H129.323C142.406 111.514 147.215 108.271 147.215 95.8585V66.784H127.645V78.5256H134.914V96.9767C134.914 98.7659 133.907 99.7724 132.118 99.7724H124.291C122.501 99.7724 121.495 98.7659 121.495 96.9767V45.5372C121.495 43.748 122.501 42.7416 124.291 42.7416H132.118C133.907 42.7416 134.914 43.748 134.914 45.5372V56.1606H147.215V46.6555C147.215 34.2429 142.406 31 129.323 31H127.086C114.003 31 109.194 34.2429 109.194 46.6555Z" fill="white"/>
<path d="M159.563 110.396H171.864V32.1182H159.563V110.396Z" fill="white"/>
<path d="M181.422 43.8599H194.282V110.396H206.582V43.8599H219.442V32.1182H181.422V43.8599Z" fill="white"/>
<path d="M219.931 110.396H232.568L234.581 96.3058H251.131L253.143 110.396H265.78L252.473 32.1182H233.239L219.931 110.396ZM236.258 85.2351L241.849 46.4318H243.862L249.453 85.2351H236.258Z" fill="white"/>
<path d="M273.013 110.396H307.12V98.6541H285.314V32.1182H273.013V110.396Z" fill="white"/>
<path d="M32.1484 200.463V136.722H44.4492V201.581C44.4492 203.37 45.4556 204.377 47.2448 204.377H57.3091C59.0983 204.377 60.1047 203.37 60.1047 201.581V136.722H72.4054V200.463C72.4054 212.875 67.597 216.118 54.5134 216.118H50.0404C36.9569 216.118 32.1484 212.875 32.1484 200.463Z" fill="white"/>
<path d="M84.6756 215V136.722H107.041C120.124 136.722 124.933 139.965 124.933 152.378V199.344C124.933 211.757 120.124 215 107.041 215H84.6756ZM109.836 203.258C111.625 203.258 112.632 202.252 112.632 200.463V151.26C112.632 149.47 111.625 148.464 109.836 148.464H96.9763V203.258H109.836Z" fill="white"/>
<path d="M136.657 215V136.722H149.517L160.028 182.123H161.929L172.441 136.722H185.301V215H174.118V172.618H172.664L166.067 202.252H155.891L149.293 172.618H147.839V215H136.657Z" fill="white"/>
<path d="M197.593 200.463V136.722H209.893V201.581C209.893 203.37 210.9 204.377 212.689 204.377H222.753C224.542 204.377 225.549 203.37 225.549 201.581V136.722H237.85V200.463C237.85 212.875 233.041 216.118 219.958 216.118H215.485C202.401 216.118 197.593 212.875 197.593 200.463Z" fill="white"/>
<path d="M250.12 215V136.722H270.248C283.332 136.722 288.14 139.965 288.14 152.378V168.928C288.14 177.65 285.792 181.9 279.865 183.577L293.172 215H279.865L267.564 184.583H262.421V215H250.12ZM273.044 172.842C274.833 172.842 275.839 171.835 275.839 170.046V151.26C275.839 149.47 274.833 148.464 273.044 148.464H262.421V172.842H273.044Z" fill="white"/>
<path d="M296.562 148.464V136.722H334.583V148.464H321.723V215H309.422V148.464H296.562Z" fill="white"/>
<path d="M344.048 215V136.722H356.349V215H344.048Z" fill="white"/>
<path d="M364.229 215L377.536 136.722H396.77L410.078 215H397.441L395.428 200.91H378.878L376.866 215H364.229ZM380.556 189.839H393.751L388.16 151.036H386.147L380.556 189.839Z" fill="white"/>
<defs>
<linearGradient id="paint0_linear_713_18" x1="0" y1="0" x2="450" y2="247" gradientUnits="userSpaceOnUse">
<stop stop-color="#FF0000"/>
<stop offset="0.0001" stop-color="#CB1C1C"/>
<stop offset="0.506944" stop-color="#3E116A"/>
<stop offset="1" stop-color="#2779DC"/>
</linearGradient>
</defs>
</svg>
